<mxfile host="app.diagrams.net" modified="2024-04-23T07:40:41.763Z" agent="Mozilla/5.0 (Windows NT 10.0; Win64; x64) AppleWebKit/537.36 (KHTML, like Gecko) Chrome/123.0.0.0 Safari/537.36" etag="79kBqlb6vp9xUr5uV2OY" version="24.2.8" type="github">
  <diagram name="Page-1" id="qof1fZy7rlcnzFYANP3V">
    <mxGraphModel dx="3635" dy="1375" grid="1" gridSize="10" guides="1" tooltips="1" connect="1" arrows="1" fold="1" page="1" pageScale="1" pageWidth="850" pageHeight="1100" math="0" shadow="0">
      <root>
        <mxCell id="0" />
        <mxCell id="1" parent="0" />
        <mxCell id="pRwMzuSWa3xkRZmgdmZQ-1" value="`companies`" style="shape=table;startSize=30;container=1;collapsible=1;childLayout=tableLayout;fixedRows=1;rowLines=0;fontStyle=1;align=center;resizeLast=1;fontSize=18;" vertex="1" parent="1">
          <mxGeometry x="80" y="1250" width="510" height="240" as="geometry" />
        </mxCell>
        <mxCell id="pRwMzuSWa3xkRZmgdmZQ-2" value="" style="shape=tableRow;horizontal=0;startSize=0;swimlaneHead=0;swimlaneBody=0;fillColor=none;collapsible=0;dropTarget=0;points=[[0,0.5],[1,0.5]];portConstraint=eastwest;strokeColor=inherit;top=0;left=0;right=0;bottom=1;fontSize=18;" vertex="1" parent="pRwMzuSWa3xkRZmgdmZQ-1">
          <mxGeometry y="30" width="510" height="30" as="geometry" />
        </mxCell>
        <mxCell id="pRwMzuSWa3xkRZmgdmZQ-3" value="PK" style="shape=partialRectangle;overflow=hidden;connectable=0;fillColor=none;strokeColor=inherit;top=0;left=0;bottom=0;right=0;fontStyle=1;fontSize=18;" vertex="1" parent="pRwMzuSWa3xkRZmgdmZQ-2">
          <mxGeometry width="30" height="30" as="geometry">
            <mxRectangle width="30" height="30" as="alternateBounds" />
          </mxGeometry>
        </mxCell>
        <mxCell id="pRwMzuSWa3xkRZmgdmZQ-4" value="`id` bigint(20) unsigned NOT NULL AUTO_INCREMENT" style="shape=partialRectangle;overflow=hidden;connectable=0;fillColor=none;align=left;strokeColor=inherit;top=0;left=0;bottom=0;right=0;spacingLeft=6;fontStyle=5;fontSize=18;" vertex="1" parent="pRwMzuSWa3xkRZmgdmZQ-2">
          <mxGeometry x="30" width="480" height="30" as="geometry">
            <mxRectangle width="480" height="30" as="alternateBounds" />
          </mxGeometry>
        </mxCell>
        <mxCell id="pRwMzuSWa3xkRZmgdmZQ-5" value="" style="shape=tableRow;horizontal=0;startSize=0;swimlaneHead=0;swimlaneBody=0;fillColor=none;collapsible=0;dropTarget=0;points=[[0,0.5],[1,0.5]];portConstraint=eastwest;strokeColor=inherit;top=0;left=0;right=0;bottom=0;fontSize=18;" vertex="1" parent="pRwMzuSWa3xkRZmgdmZQ-1">
          <mxGeometry y="60" width="510" height="30" as="geometry" />
        </mxCell>
        <mxCell id="pRwMzuSWa3xkRZmgdmZQ-6" value="" style="shape=partialRectangle;overflow=hidden;connectable=0;fillColor=none;strokeColor=inherit;top=0;left=0;bottom=0;right=0;fontSize=18;" vertex="1" parent="pRwMzuSWa3xkRZmgdmZQ-5">
          <mxGeometry width="30" height="30" as="geometry">
            <mxRectangle width="30" height="30" as="alternateBounds" />
          </mxGeometry>
        </mxCell>
        <mxCell id="pRwMzuSWa3xkRZmgdmZQ-7" value="`name` varchar(191) NOT NULL" style="shape=partialRectangle;overflow=hidden;connectable=0;fillColor=none;align=left;strokeColor=inherit;top=0;left=0;bottom=0;right=0;spacingLeft=6;fontSize=18;" vertex="1" parent="pRwMzuSWa3xkRZmgdmZQ-5">
          <mxGeometry x="30" width="480" height="30" as="geometry">
            <mxRectangle width="480" height="30" as="alternateBounds" />
          </mxGeometry>
        </mxCell>
        <mxCell id="pRwMzuSWa3xkRZmgdmZQ-8" value="" style="shape=tableRow;horizontal=0;startSize=0;swimlaneHead=0;swimlaneBody=0;fillColor=none;collapsible=0;dropTarget=0;points=[[0,0.5],[1,0.5]];portConstraint=eastwest;strokeColor=inherit;top=0;left=0;right=0;bottom=0;fontSize=18;" vertex="1" parent="pRwMzuSWa3xkRZmgdmZQ-1">
          <mxGeometry y="90" width="510" height="30" as="geometry" />
        </mxCell>
        <mxCell id="pRwMzuSWa3xkRZmgdmZQ-9" value="" style="shape=partialRectangle;overflow=hidden;connectable=0;fillColor=none;strokeColor=inherit;top=0;left=0;bottom=0;right=0;fontSize=18;" vertex="1" parent="pRwMzuSWa3xkRZmgdmZQ-8">
          <mxGeometry width="30" height="30" as="geometry">
            <mxRectangle width="30" height="30" as="alternateBounds" />
          </mxGeometry>
        </mxCell>
        <mxCell id="pRwMzuSWa3xkRZmgdmZQ-10" value="`email` varchar(191) NOT NULL" style="shape=partialRectangle;overflow=hidden;connectable=0;fillColor=none;align=left;strokeColor=inherit;top=0;left=0;bottom=0;right=0;spacingLeft=6;fontSize=18;" vertex="1" parent="pRwMzuSWa3xkRZmgdmZQ-8">
          <mxGeometry x="30" width="480" height="30" as="geometry">
            <mxRectangle width="480" height="30" as="alternateBounds" />
          </mxGeometry>
        </mxCell>
        <mxCell id="pRwMzuSWa3xkRZmgdmZQ-11" value="" style="shape=tableRow;horizontal=0;startSize=0;swimlaneHead=0;swimlaneBody=0;fillColor=none;collapsible=0;dropTarget=0;points=[[0,0.5],[1,0.5]];portConstraint=eastwest;strokeColor=inherit;top=0;left=0;right=0;bottom=0;fontSize=18;" vertex="1" parent="pRwMzuSWa3xkRZmgdmZQ-1">
          <mxGeometry y="120" width="510" height="30" as="geometry" />
        </mxCell>
        <mxCell id="pRwMzuSWa3xkRZmgdmZQ-12" value="" style="shape=partialRectangle;overflow=hidden;connectable=0;fillColor=none;strokeColor=inherit;top=0;left=0;bottom=0;right=0;fontSize=18;" vertex="1" parent="pRwMzuSWa3xkRZmgdmZQ-11">
          <mxGeometry width="30" height="30" as="geometry">
            <mxRectangle width="30" height="30" as="alternateBounds" />
          </mxGeometry>
        </mxCell>
        <mxCell id="pRwMzuSWa3xkRZmgdmZQ-13" value="`phone` varchar(100) NOT NULL" style="shape=partialRectangle;overflow=hidden;connectable=0;fillColor=none;align=left;strokeColor=inherit;top=0;left=0;bottom=0;right=0;spacingLeft=6;fontSize=18;" vertex="1" parent="pRwMzuSWa3xkRZmgdmZQ-11">
          <mxGeometry x="30" width="480" height="30" as="geometry">
            <mxRectangle width="480" height="30" as="alternateBounds" />
          </mxGeometry>
        </mxCell>
        <mxCell id="pRwMzuSWa3xkRZmgdmZQ-14" value="" style="shape=tableRow;horizontal=0;startSize=0;swimlaneHead=0;swimlaneBody=0;fillColor=none;collapsible=0;dropTarget=0;points=[[0,0.5],[1,0.5]];portConstraint=eastwest;strokeColor=inherit;top=0;left=0;right=0;bottom=0;fontSize=18;" vertex="1" parent="pRwMzuSWa3xkRZmgdmZQ-1">
          <mxGeometry y="150" width="510" height="30" as="geometry" />
        </mxCell>
        <mxCell id="pRwMzuSWa3xkRZmgdmZQ-15" value="" style="shape=partialRectangle;overflow=hidden;connectable=0;fillColor=none;strokeColor=inherit;top=0;left=0;bottom=0;right=0;fontSize=18;" vertex="1" parent="pRwMzuSWa3xkRZmgdmZQ-14">
          <mxGeometry width="30" height="30" as="geometry">
            <mxRectangle width="30" height="30" as="alternateBounds" />
          </mxGeometry>
        </mxCell>
        <mxCell id="pRwMzuSWa3xkRZmgdmZQ-16" value="`deleted_at` timestamp NULL DEFAULT NULL" style="shape=partialRectangle;overflow=hidden;connectable=0;fillColor=none;align=left;strokeColor=inherit;top=0;left=0;bottom=0;right=0;spacingLeft=6;fontSize=18;" vertex="1" parent="pRwMzuSWa3xkRZmgdmZQ-14">
          <mxGeometry x="30" width="480" height="30" as="geometry">
            <mxRectangle width="480" height="30" as="alternateBounds" />
          </mxGeometry>
        </mxCell>
        <mxCell id="pRwMzuSWa3xkRZmgdmZQ-17" value="" style="shape=tableRow;horizontal=0;startSize=0;swimlaneHead=0;swimlaneBody=0;fillColor=none;collapsible=0;dropTarget=0;points=[[0,0.5],[1,0.5]];portConstraint=eastwest;strokeColor=inherit;top=0;left=0;right=0;bottom=0;fontSize=18;" vertex="1" parent="pRwMzuSWa3xkRZmgdmZQ-1">
          <mxGeometry y="180" width="510" height="30" as="geometry" />
        </mxCell>
        <mxCell id="pRwMzuSWa3xkRZmgdmZQ-18" value="" style="shape=partialRectangle;overflow=hidden;connectable=0;fillColor=none;strokeColor=inherit;top=0;left=0;bottom=0;right=0;fontSize=18;" vertex="1" parent="pRwMzuSWa3xkRZmgdmZQ-17">
          <mxGeometry width="30" height="30" as="geometry">
            <mxRectangle width="30" height="30" as="alternateBounds" />
          </mxGeometry>
        </mxCell>
        <mxCell id="pRwMzuSWa3xkRZmgdmZQ-19" value="`created_at` timestamp NULL DEFAULT NULL" style="shape=partialRectangle;overflow=hidden;connectable=0;fillColor=none;align=left;strokeColor=inherit;top=0;left=0;bottom=0;right=0;spacingLeft=6;fontSize=18;" vertex="1" parent="pRwMzuSWa3xkRZmgdmZQ-17">
          <mxGeometry x="30" width="480" height="30" as="geometry">
            <mxRectangle width="480" height="30" as="alternateBounds" />
          </mxGeometry>
        </mxCell>
        <mxCell id="pRwMzuSWa3xkRZmgdmZQ-20" value="" style="shape=tableRow;horizontal=0;startSize=0;swimlaneHead=0;swimlaneBody=0;fillColor=none;collapsible=0;dropTarget=0;points=[[0,0.5],[1,0.5]];portConstraint=eastwest;strokeColor=inherit;top=0;left=0;right=0;bottom=0;fontSize=18;" vertex="1" parent="pRwMzuSWa3xkRZmgdmZQ-1">
          <mxGeometry y="210" width="510" height="30" as="geometry" />
        </mxCell>
        <mxCell id="pRwMzuSWa3xkRZmgdmZQ-21" value="" style="shape=partialRectangle;overflow=hidden;connectable=0;fillColor=none;strokeColor=inherit;top=0;left=0;bottom=0;right=0;fontSize=18;" vertex="1" parent="pRwMzuSWa3xkRZmgdmZQ-20">
          <mxGeometry width="30" height="30" as="geometry">
            <mxRectangle width="30" height="30" as="alternateBounds" />
          </mxGeometry>
        </mxCell>
        <mxCell id="pRwMzuSWa3xkRZmgdmZQ-22" value="`updated_at` timestamp NULL DEFAULT NULL" style="shape=partialRectangle;overflow=hidden;connectable=0;fillColor=none;align=left;strokeColor=inherit;top=0;left=0;bottom=0;right=0;spacingLeft=6;fontSize=18;" vertex="1" parent="pRwMzuSWa3xkRZmgdmZQ-20">
          <mxGeometry x="30" width="480" height="30" as="geometry">
            <mxRectangle width="480" height="30" as="alternateBounds" />
          </mxGeometry>
        </mxCell>
        <mxCell id="pRwMzuSWa3xkRZmgdmZQ-32" value="`company_global_promo`" style="shape=table;startSize=30;container=1;collapsible=1;childLayout=tableLayout;fixedRows=1;rowLines=0;fontStyle=1;align=center;resizeLast=1;fontSize=18;" vertex="1" parent="1">
          <mxGeometry x="-720" y="1340" width="520" height="190" as="geometry" />
        </mxCell>
        <mxCell id="pRwMzuSWa3xkRZmgdmZQ-33" value="" style="shape=tableRow;horizontal=0;startSize=0;swimlaneHead=0;swimlaneBody=0;fillColor=none;collapsible=0;dropTarget=0;points=[[0,0.5],[1,0.5]];portConstraint=eastwest;strokeColor=inherit;top=0;left=0;right=0;bottom=1;fontSize=18;" vertex="1" parent="pRwMzuSWa3xkRZmgdmZQ-32">
          <mxGeometry y="30" width="520" height="30" as="geometry" />
        </mxCell>
        <mxCell id="pRwMzuSWa3xkRZmgdmZQ-34" value="PK" style="shape=partialRectangle;overflow=hidden;connectable=0;fillColor=none;strokeColor=inherit;top=0;left=0;bottom=0;right=0;fontStyle=1;fontSize=18;" vertex="1" parent="pRwMzuSWa3xkRZmgdmZQ-33">
          <mxGeometry width="30" height="30" as="geometry">
            <mxRectangle width="30" height="30" as="alternateBounds" />
          </mxGeometry>
        </mxCell>
        <mxCell id="pRwMzuSWa3xkRZmgdmZQ-35" value="`id` bigint(20) unsigned NOT NULL AUTO_INCREMENT" style="shape=partialRectangle;overflow=hidden;connectable=0;fillColor=none;align=left;strokeColor=inherit;top=0;left=0;bottom=0;right=0;spacingLeft=6;fontStyle=5;fontSize=18;" vertex="1" parent="pRwMzuSWa3xkRZmgdmZQ-33">
          <mxGeometry x="30" width="490" height="30" as="geometry">
            <mxRectangle width="490" height="30" as="alternateBounds" />
          </mxGeometry>
        </mxCell>
        <mxCell id="pRwMzuSWa3xkRZmgdmZQ-36" value="" style="shape=tableRow;horizontal=0;startSize=0;swimlaneHead=0;swimlaneBody=0;fillColor=none;collapsible=0;dropTarget=0;points=[[0,0.5],[1,0.5]];portConstraint=eastwest;strokeColor=inherit;top=0;left=0;right=0;bottom=0;fontSize=18;" vertex="1" parent="pRwMzuSWa3xkRZmgdmZQ-32">
          <mxGeometry y="60" width="520" height="30" as="geometry" />
        </mxCell>
        <mxCell id="pRwMzuSWa3xkRZmgdmZQ-37" value="" style="shape=partialRectangle;overflow=hidden;connectable=0;fillColor=none;strokeColor=inherit;top=0;left=0;bottom=0;right=0;fontSize=18;" vertex="1" parent="pRwMzuSWa3xkRZmgdmZQ-36">
          <mxGeometry width="30" height="30" as="geometry">
            <mxRectangle width="30" height="30" as="alternateBounds" />
          </mxGeometry>
        </mxCell>
        <mxCell id="pRwMzuSWa3xkRZmgdmZQ-38" value="`global_promo_id` bigint(20) unsigned NOT NULL" style="shape=partialRectangle;overflow=hidden;connectable=0;fillColor=none;align=left;strokeColor=inherit;top=0;left=0;bottom=0;right=0;spacingLeft=6;fontSize=18;" vertex="1" parent="pRwMzuSWa3xkRZmgdmZQ-36">
          <mxGeometry x="30" width="490" height="30" as="geometry">
            <mxRectangle width="490" height="30" as="alternateBounds" />
          </mxGeometry>
        </mxCell>
        <mxCell id="pRwMzuSWa3xkRZmgdmZQ-39" value="" style="shape=tableRow;horizontal=0;startSize=0;swimlaneHead=0;swimlaneBody=0;fillColor=none;collapsible=0;dropTarget=0;points=[[0,0.5],[1,0.5]];portConstraint=eastwest;strokeColor=inherit;top=0;left=0;right=0;bottom=0;fontSize=18;" vertex="1" parent="pRwMzuSWa3xkRZmgdmZQ-32">
          <mxGeometry y="90" width="520" height="30" as="geometry" />
        </mxCell>
        <mxCell id="pRwMzuSWa3xkRZmgdmZQ-40" value="" style="shape=partialRectangle;overflow=hidden;connectable=0;fillColor=none;strokeColor=inherit;top=0;left=0;bottom=0;right=0;fontSize=18;" vertex="1" parent="pRwMzuSWa3xkRZmgdmZQ-39">
          <mxGeometry width="30" height="30" as="geometry">
            <mxRectangle width="30" height="30" as="alternateBounds" />
          </mxGeometry>
        </mxCell>
        <mxCell id="pRwMzuSWa3xkRZmgdmZQ-41" value="`company_id` bigint(20) unsigned NOT NULL" style="shape=partialRectangle;overflow=hidden;connectable=0;fillColor=none;align=left;strokeColor=inherit;top=0;left=0;bottom=0;right=0;spacingLeft=6;fontSize=18;" vertex="1" parent="pRwMzuSWa3xkRZmgdmZQ-39">
          <mxGeometry x="30" width="490" height="30" as="geometry">
            <mxRectangle width="490" height="30" as="alternateBounds" />
          </mxGeometry>
        </mxCell>
        <mxCell id="pRwMzuSWa3xkRZmgdmZQ-42" value="" style="shape=tableRow;horizontal=0;startSize=0;swimlaneHead=0;swimlaneBody=0;fillColor=none;collapsible=0;dropTarget=0;points=[[0,0.5],[1,0.5]];portConstraint=eastwest;strokeColor=inherit;top=0;left=0;right=0;bottom=0;fontSize=18;" vertex="1" parent="pRwMzuSWa3xkRZmgdmZQ-32">
          <mxGeometry y="120" width="520" height="30" as="geometry" />
        </mxCell>
        <mxCell id="pRwMzuSWa3xkRZmgdmZQ-43" value="" style="shape=partialRectangle;overflow=hidden;connectable=0;fillColor=none;strokeColor=inherit;top=0;left=0;bottom=0;right=0;fontSize=18;" vertex="1" parent="pRwMzuSWa3xkRZmgdmZQ-42">
          <mxGeometry width="30" height="30" as="geometry">
            <mxRectangle width="30" height="30" as="alternateBounds" />
          </mxGeometry>
        </mxCell>
        <mxCell id="pRwMzuSWa3xkRZmgdmZQ-44" value="`created_at` timestamp NULL DEFAULT NULL" style="shape=partialRectangle;overflow=hidden;connectable=0;fillColor=none;align=left;strokeColor=inherit;top=0;left=0;bottom=0;right=0;spacingLeft=6;fontSize=18;" vertex="1" parent="pRwMzuSWa3xkRZmgdmZQ-42">
          <mxGeometry x="30" width="490" height="30" as="geometry">
            <mxRectangle width="490" height="30" as="alternateBounds" />
          </mxGeometry>
        </mxCell>
        <mxCell id="pRwMzuSWa3xkRZmgdmZQ-45" value="" style="shape=tableRow;horizontal=0;startSize=0;swimlaneHead=0;swimlaneBody=0;fillColor=none;collapsible=0;dropTarget=0;points=[[0,0.5],[1,0.5]];portConstraint=eastwest;strokeColor=inherit;top=0;left=0;right=0;bottom=0;fontSize=18;" vertex="1" parent="pRwMzuSWa3xkRZmgdmZQ-32">
          <mxGeometry y="150" width="520" height="30" as="geometry" />
        </mxCell>
        <mxCell id="pRwMzuSWa3xkRZmgdmZQ-46" value="" style="shape=partialRectangle;overflow=hidden;connectable=0;fillColor=none;strokeColor=inherit;top=0;left=0;bottom=0;right=0;fontSize=18;" vertex="1" parent="pRwMzuSWa3xkRZmgdmZQ-45">
          <mxGeometry width="30" height="30" as="geometry">
            <mxRectangle width="30" height="30" as="alternateBounds" />
          </mxGeometry>
        </mxCell>
        <mxCell id="pRwMzuSWa3xkRZmgdmZQ-47" value="`updated_at` timestamp NULL DEFAULT NULL" style="shape=partialRectangle;overflow=hidden;connectable=0;fillColor=none;align=left;strokeColor=inherit;top=0;left=0;bottom=0;right=0;spacingLeft=6;fontSize=18;" vertex="1" parent="pRwMzuSWa3xkRZmgdmZQ-45">
          <mxGeometry x="30" width="490" height="30" as="geometry">
            <mxRectangle width="490" height="30" as="alternateBounds" />
          </mxGeometry>
        </mxCell>
        <mxCell id="pRwMzuSWa3xkRZmgdmZQ-60" value="`company_transactions`" style="shape=table;startSize=30;container=1;collapsible=1;childLayout=tableLayout;fixedRows=1;rowLines=0;fontStyle=1;align=center;resizeLast=1;fontSize=18;" vertex="1" parent="1">
          <mxGeometry x="-785" y="690" width="785" height="280" as="geometry" />
        </mxCell>
        <mxCell id="pRwMzuSWa3xkRZmgdmZQ-61" value="" style="shape=tableRow;horizontal=0;startSize=0;swimlaneHead=0;swimlaneBody=0;fillColor=none;collapsible=0;dropTarget=0;points=[[0,0.5],[1,0.5]];portConstraint=eastwest;strokeColor=inherit;top=0;left=0;right=0;bottom=1;fontSize=18;" vertex="1" parent="pRwMzuSWa3xkRZmgdmZQ-60">
          <mxGeometry y="30" width="785" height="30" as="geometry" />
        </mxCell>
        <mxCell id="pRwMzuSWa3xkRZmgdmZQ-62" value="PK" style="shape=partialRectangle;overflow=hidden;connectable=0;fillColor=none;strokeColor=inherit;top=0;left=0;bottom=0;right=0;fontStyle=1;fontSize=18;" vertex="1" parent="pRwMzuSWa3xkRZmgdmZQ-61">
          <mxGeometry width="30" height="30" as="geometry">
            <mxRectangle width="30" height="30" as="alternateBounds" />
          </mxGeometry>
        </mxCell>
        <mxCell id="pRwMzuSWa3xkRZmgdmZQ-63" value="`id` bigint(20) unsigned NOT NULL AUTO_INCREMENT" style="shape=partialRectangle;overflow=hidden;connectable=0;fillColor=none;align=left;strokeColor=inherit;top=0;left=0;bottom=0;right=0;spacingLeft=6;fontStyle=5;fontSize=18;" vertex="1" parent="pRwMzuSWa3xkRZmgdmZQ-61">
          <mxGeometry x="30" width="755" height="30" as="geometry">
            <mxRectangle width="755" height="30" as="alternateBounds" />
          </mxGeometry>
        </mxCell>
        <mxCell id="pRwMzuSWa3xkRZmgdmZQ-64" value="" style="shape=tableRow;horizontal=0;startSize=0;swimlaneHead=0;swimlaneBody=0;fillColor=none;collapsible=0;dropTarget=0;points=[[0,0.5],[1,0.5]];portConstraint=eastwest;strokeColor=inherit;top=0;left=0;right=0;bottom=0;fontSize=18;" vertex="1" parent="pRwMzuSWa3xkRZmgdmZQ-60">
          <mxGeometry y="60" width="785" height="30" as="geometry" />
        </mxCell>
        <mxCell id="pRwMzuSWa3xkRZmgdmZQ-65" value="" style="shape=partialRectangle;overflow=hidden;connectable=0;fillColor=none;strokeColor=inherit;top=0;left=0;bottom=0;right=0;fontSize=18;" vertex="1" parent="pRwMzuSWa3xkRZmgdmZQ-64">
          <mxGeometry width="30" height="30" as="geometry">
            <mxRectangle width="30" height="30" as="alternateBounds" />
          </mxGeometry>
        </mxCell>
        <mxCell id="pRwMzuSWa3xkRZmgdmZQ-66" value="`company_id` bigint(20) unsigned NOT NULL" style="shape=partialRectangle;overflow=hidden;connectable=0;fillColor=none;align=left;strokeColor=inherit;top=0;left=0;bottom=0;right=0;spacingLeft=6;fontSize=18;" vertex="1" parent="pRwMzuSWa3xkRZmgdmZQ-64">
          <mxGeometry x="30" width="755" height="30" as="geometry">
            <mxRectangle width="755" height="30" as="alternateBounds" />
          </mxGeometry>
        </mxCell>
        <mxCell id="pRwMzuSWa3xkRZmgdmZQ-67" value="" style="shape=tableRow;horizontal=0;startSize=0;swimlaneHead=0;swimlaneBody=0;fillColor=none;collapsible=0;dropTarget=0;points=[[0,0.5],[1,0.5]];portConstraint=eastwest;strokeColor=inherit;top=0;left=0;right=0;bottom=0;fontSize=18;" vertex="1" parent="pRwMzuSWa3xkRZmgdmZQ-60">
          <mxGeometry y="90" width="785" height="30" as="geometry" />
        </mxCell>
        <mxCell id="pRwMzuSWa3xkRZmgdmZQ-68" value="" style="shape=partialRectangle;overflow=hidden;connectable=0;fillColor=none;strokeColor=inherit;top=0;left=0;bottom=0;right=0;fontSize=18;" vertex="1" parent="pRwMzuSWa3xkRZmgdmZQ-67">
          <mxGeometry width="30" height="30" as="geometry">
            <mxRectangle width="30" height="30" as="alternateBounds" />
          </mxGeometry>
        </mxCell>
        <mxCell id="pRwMzuSWa3xkRZmgdmZQ-69" value="`opening` int(11) NOT NULL" style="shape=partialRectangle;overflow=hidden;connectable=0;fillColor=none;align=left;strokeColor=inherit;top=0;left=0;bottom=0;right=0;spacingLeft=6;fontSize=18;" vertex="1" parent="pRwMzuSWa3xkRZmgdmZQ-67">
          <mxGeometry x="30" width="755" height="30" as="geometry">
            <mxRectangle width="755" height="30" as="alternateBounds" />
          </mxGeometry>
        </mxCell>
        <mxCell id="pRwMzuSWa3xkRZmgdmZQ-70" value="" style="shape=tableRow;horizontal=0;startSize=0;swimlaneHead=0;swimlaneBody=0;fillColor=none;collapsible=0;dropTarget=0;points=[[0,0.5],[1,0.5]];portConstraint=eastwest;strokeColor=inherit;top=0;left=0;right=0;bottom=0;fontSize=18;" vertex="1" parent="pRwMzuSWa3xkRZmgdmZQ-60">
          <mxGeometry y="120" width="785" height="30" as="geometry" />
        </mxCell>
        <mxCell id="pRwMzuSWa3xkRZmgdmZQ-71" value="" style="shape=partialRectangle;overflow=hidden;connectable=0;fillColor=none;strokeColor=inherit;top=0;left=0;bottom=0;right=0;fontSize=18;" vertex="1" parent="pRwMzuSWa3xkRZmgdmZQ-70">
          <mxGeometry width="30" height="30" as="geometry">
            <mxRectangle width="30" height="30" as="alternateBounds" />
          </mxGeometry>
        </mxCell>
        <mxCell id="pRwMzuSWa3xkRZmgdmZQ-72" value="`amount` int(11) NOT NULL" style="shape=partialRectangle;overflow=hidden;connectable=0;fillColor=none;align=left;strokeColor=inherit;top=0;left=0;bottom=0;right=0;spacingLeft=6;fontSize=18;" vertex="1" parent="pRwMzuSWa3xkRZmgdmZQ-70">
          <mxGeometry x="30" width="755" height="30" as="geometry">
            <mxRectangle width="755" height="30" as="alternateBounds" />
          </mxGeometry>
        </mxCell>
        <mxCell id="pRwMzuSWa3xkRZmgdmZQ-73" value="" style="shape=tableRow;horizontal=0;startSize=0;swimlaneHead=0;swimlaneBody=0;fillColor=none;collapsible=0;dropTarget=0;points=[[0,0.5],[1,0.5]];portConstraint=eastwest;strokeColor=inherit;top=0;left=0;right=0;bottom=0;fontSize=18;" vertex="1" parent="pRwMzuSWa3xkRZmgdmZQ-60">
          <mxGeometry y="150" width="785" height="30" as="geometry" />
        </mxCell>
        <mxCell id="pRwMzuSWa3xkRZmgdmZQ-74" value="" style="shape=partialRectangle;overflow=hidden;connectable=0;fillColor=none;strokeColor=inherit;top=0;left=0;bottom=0;right=0;fontSize=18;" vertex="1" parent="pRwMzuSWa3xkRZmgdmZQ-73">
          <mxGeometry width="30" height="30" as="geometry">
            <mxRectangle width="30" height="30" as="alternateBounds" />
          </mxGeometry>
        </mxCell>
        <mxCell id="pRwMzuSWa3xkRZmgdmZQ-75" value="`closing` int(11) NOT NULL" style="shape=partialRectangle;overflow=hidden;connectable=0;fillColor=none;align=left;strokeColor=inherit;top=0;left=0;bottom=0;right=0;spacingLeft=6;fontSize=18;" vertex="1" parent="pRwMzuSWa3xkRZmgdmZQ-73">
          <mxGeometry x="30" width="755" height="30" as="geometry">
            <mxRectangle width="755" height="30" as="alternateBounds" />
          </mxGeometry>
        </mxCell>
        <mxCell id="pRwMzuSWa3xkRZmgdmZQ-76" value="" style="shape=tableRow;horizontal=0;startSize=0;swimlaneHead=0;swimlaneBody=0;fillColor=none;collapsible=0;dropTarget=0;points=[[0,0.5],[1,0.5]];portConstraint=eastwest;strokeColor=inherit;top=0;left=0;right=0;bottom=0;fontSize=18;" vertex="1" parent="pRwMzuSWa3xkRZmgdmZQ-60">
          <mxGeometry y="180" width="785" height="30" as="geometry" />
        </mxCell>
        <mxCell id="pRwMzuSWa3xkRZmgdmZQ-77" value="" style="shape=partialRectangle;overflow=hidden;connectable=0;fillColor=none;strokeColor=inherit;top=0;left=0;bottom=0;right=0;fontSize=18;" vertex="1" parent="pRwMzuSWa3xkRZmgdmZQ-76">
          <mxGeometry width="30" height="30" as="geometry">
            <mxRectangle width="30" height="30" as="alternateBounds" />
          </mxGeometry>
        </mxCell>
        <mxCell id="pRwMzuSWa3xkRZmgdmZQ-78" value="`type` varchar(191) NOT NULL" style="shape=partialRectangle;overflow=hidden;connectable=0;fillColor=none;align=left;strokeColor=inherit;top=0;left=0;bottom=0;right=0;spacingLeft=6;fontSize=18;" vertex="1" parent="pRwMzuSWa3xkRZmgdmZQ-76">
          <mxGeometry x="30" width="755" height="30" as="geometry">
            <mxRectangle width="755" height="30" as="alternateBounds" />
          </mxGeometry>
        </mxCell>
        <mxCell id="pRwMzuSWa3xkRZmgdmZQ-79" value="" style="shape=tableRow;horizontal=0;startSize=0;swimlaneHead=0;swimlaneBody=0;fillColor=none;collapsible=0;dropTarget=0;points=[[0,0.5],[1,0.5]];portConstraint=eastwest;strokeColor=inherit;top=0;left=0;right=0;bottom=0;fontSize=18;" vertex="1" parent="pRwMzuSWa3xkRZmgdmZQ-60">
          <mxGeometry y="210" width="785" height="30" as="geometry" />
        </mxCell>
        <mxCell id="pRwMzuSWa3xkRZmgdmZQ-80" value="" style="shape=partialRectangle;overflow=hidden;connectable=0;fillColor=none;strokeColor=inherit;top=0;left=0;bottom=0;right=0;fontSize=18;" vertex="1" parent="pRwMzuSWa3xkRZmgdmZQ-79">
          <mxGeometry width="30" height="30" as="geometry">
            <mxRectangle width="30" height="30" as="alternateBounds" />
          </mxGeometry>
        </mxCell>
        <mxCell id="pRwMzuSWa3xkRZmgdmZQ-81" value="`created_at` timestamp NULL DEFAULT NULL" style="shape=partialRectangle;overflow=hidden;connectable=0;fillColor=none;align=left;strokeColor=inherit;top=0;left=0;bottom=0;right=0;spacingLeft=6;fontSize=18;" vertex="1" parent="pRwMzuSWa3xkRZmgdmZQ-79">
          <mxGeometry x="30" width="755" height="30" as="geometry">
            <mxRectangle width="755" height="30" as="alternateBounds" />
          </mxGeometry>
        </mxCell>
        <mxCell id="pRwMzuSWa3xkRZmgdmZQ-82" value="" style="shape=tableRow;horizontal=0;startSize=0;swimlaneHead=0;swimlaneBody=0;fillColor=none;collapsible=0;dropTarget=0;points=[[0,0.5],[1,0.5]];portConstraint=eastwest;strokeColor=inherit;top=0;left=0;right=0;bottom=0;fontSize=18;" vertex="1" parent="pRwMzuSWa3xkRZmgdmZQ-60">
          <mxGeometry y="240" width="785" height="30" as="geometry" />
        </mxCell>
        <mxCell id="pRwMzuSWa3xkRZmgdmZQ-83" value="" style="shape=partialRectangle;overflow=hidden;connectable=0;fillColor=none;strokeColor=inherit;top=0;left=0;bottom=0;right=0;fontSize=18;" vertex="1" parent="pRwMzuSWa3xkRZmgdmZQ-82">
          <mxGeometry width="30" height="30" as="geometry">
            <mxRectangle width="30" height="30" as="alternateBounds" />
          </mxGeometry>
        </mxCell>
        <mxCell id="pRwMzuSWa3xkRZmgdmZQ-84" value="`updated_at` timestamp NULL DEFAULT NULL" style="shape=partialRectangle;overflow=hidden;connectable=0;fillColor=none;align=left;strokeColor=inherit;top=0;left=0;bottom=0;right=0;spacingLeft=6;fontSize=18;" vertex="1" parent="pRwMzuSWa3xkRZmgdmZQ-82">
          <mxGeometry x="30" width="755" height="30" as="geometry">
            <mxRectangle width="755" height="30" as="alternateBounds" />
          </mxGeometry>
        </mxCell>
        <mxCell id="pRwMzuSWa3xkRZmgdmZQ-91" value="`costs`" style="shape=table;startSize=30;container=1;collapsible=1;childLayout=tableLayout;fixedRows=1;rowLines=0;fontStyle=1;align=center;resizeLast=1;fontSize=18;" vertex="1" parent="1">
          <mxGeometry x="130" y="690" width="640" height="210" as="geometry" />
        </mxCell>
        <mxCell id="pRwMzuSWa3xkRZmgdmZQ-92" value="" style="shape=tableRow;horizontal=0;startSize=0;swimlaneHead=0;swimlaneBody=0;fillColor=none;collapsible=0;dropTarget=0;points=[[0,0.5],[1,0.5]];portConstraint=eastwest;strokeColor=inherit;top=0;left=0;right=0;bottom=1;fontSize=18;" vertex="1" parent="pRwMzuSWa3xkRZmgdmZQ-91">
          <mxGeometry y="30" width="640" height="30" as="geometry" />
        </mxCell>
        <mxCell id="pRwMzuSWa3xkRZmgdmZQ-93" value="PK" style="shape=partialRectangle;overflow=hidden;connectable=0;fillColor=none;strokeColor=inherit;top=0;left=0;bottom=0;right=0;fontStyle=1;fontSize=18;" vertex="1" parent="pRwMzuSWa3xkRZmgdmZQ-92">
          <mxGeometry width="30" height="30" as="geometry">
            <mxRectangle width="30" height="30" as="alternateBounds" />
          </mxGeometry>
        </mxCell>
        <mxCell id="pRwMzuSWa3xkRZmgdmZQ-94" value="`id` bigint(20) unsigned NOT NULL AUTO_INCREMENT" style="shape=partialRectangle;overflow=hidden;connectable=0;fillColor=none;align=left;strokeColor=inherit;top=0;left=0;bottom=0;right=0;spacingLeft=6;fontStyle=5;fontSize=18;" vertex="1" parent="pRwMzuSWa3xkRZmgdmZQ-92">
          <mxGeometry x="30" width="610" height="30" as="geometry">
            <mxRectangle width="610" height="30" as="alternateBounds" />
          </mxGeometry>
        </mxCell>
        <mxCell id="pRwMzuSWa3xkRZmgdmZQ-95" value="" style="shape=tableRow;horizontal=0;startSize=0;swimlaneHead=0;swimlaneBody=0;fillColor=none;collapsible=0;dropTarget=0;points=[[0,0.5],[1,0.5]];portConstraint=eastwest;strokeColor=inherit;top=0;left=0;right=0;bottom=0;fontSize=18;" vertex="1" parent="pRwMzuSWa3xkRZmgdmZQ-91">
          <mxGeometry y="60" width="640" height="30" as="geometry" />
        </mxCell>
        <mxCell id="pRwMzuSWa3xkRZmgdmZQ-96" value="" style="shape=partialRectangle;overflow=hidden;connectable=0;fillColor=none;strokeColor=inherit;top=0;left=0;bottom=0;right=0;fontSize=18;" vertex="1" parent="pRwMzuSWa3xkRZmgdmZQ-95">
          <mxGeometry width="30" height="30" as="geometry">
            <mxRectangle width="30" height="30" as="alternateBounds" />
          </mxGeometry>
        </mxCell>
        <mxCell id="pRwMzuSWa3xkRZmgdmZQ-97" value="`company_id` bigint(20) unsigned NOT NULL" style="shape=partialRectangle;overflow=hidden;connectable=0;fillColor=none;align=left;strokeColor=inherit;top=0;left=0;bottom=0;right=0;spacingLeft=6;fontSize=18;" vertex="1" parent="pRwMzuSWa3xkRZmgdmZQ-95">
          <mxGeometry x="30" width="610" height="30" as="geometry">
            <mxRectangle width="610" height="30" as="alternateBounds" />
          </mxGeometry>
        </mxCell>
        <mxCell id="pRwMzuSWa3xkRZmgdmZQ-98" value="" style="shape=tableRow;horizontal=0;startSize=0;swimlaneHead=0;swimlaneBody=0;fillColor=none;collapsible=0;dropTarget=0;points=[[0,0.5],[1,0.5]];portConstraint=eastwest;strokeColor=inherit;top=0;left=0;right=0;bottom=0;fontSize=18;" vertex="1" parent="pRwMzuSWa3xkRZmgdmZQ-91">
          <mxGeometry y="90" width="640" height="30" as="geometry" />
        </mxCell>
        <mxCell id="pRwMzuSWa3xkRZmgdmZQ-99" value="" style="shape=partialRectangle;overflow=hidden;connectable=0;fillColor=none;strokeColor=inherit;top=0;left=0;bottom=0;right=0;fontSize=18;" vertex="1" parent="pRwMzuSWa3xkRZmgdmZQ-98">
          <mxGeometry width="30" height="30" as="geometry">
            <mxRectangle width="30" height="30" as="alternateBounds" />
          </mxGeometry>
        </mxCell>
        <mxCell id="pRwMzuSWa3xkRZmgdmZQ-100" value="`service_fee` int(11) NOT NULL DEFAULT 0" style="shape=partialRectangle;overflow=hidden;connectable=0;fillColor=none;align=left;strokeColor=inherit;top=0;left=0;bottom=0;right=0;spacingLeft=6;fontSize=18;" vertex="1" parent="pRwMzuSWa3xkRZmgdmZQ-98">
          <mxGeometry x="30" width="610" height="30" as="geometry">
            <mxRectangle width="610" height="30" as="alternateBounds" />
          </mxGeometry>
        </mxCell>
        <mxCell id="pRwMzuSWa3xkRZmgdmZQ-101" value="" style="shape=tableRow;horizontal=0;startSize=0;swimlaneHead=0;swimlaneBody=0;fillColor=none;collapsible=0;dropTarget=0;points=[[0,0.5],[1,0.5]];portConstraint=eastwest;strokeColor=inherit;top=0;left=0;right=0;bottom=0;fontSize=18;" vertex="1" parent="pRwMzuSWa3xkRZmgdmZQ-91">
          <mxGeometry y="120" width="640" height="30" as="geometry" />
        </mxCell>
        <mxCell id="pRwMzuSWa3xkRZmgdmZQ-102" value="" style="shape=partialRectangle;overflow=hidden;connectable=0;fillColor=none;strokeColor=inherit;top=0;left=0;bottom=0;right=0;fontSize=18;" vertex="1" parent="pRwMzuSWa3xkRZmgdmZQ-101">
          <mxGeometry width="30" height="30" as="geometry">
            <mxRectangle width="30" height="30" as="alternateBounds" />
          </mxGeometry>
        </mxCell>
        <mxCell id="pRwMzuSWa3xkRZmgdmZQ-103" value="`admin_fee` int(11) NOT NULL DEFAULT 0" style="shape=partialRectangle;overflow=hidden;connectable=0;fillColor=none;align=left;strokeColor=inherit;top=0;left=0;bottom=0;right=0;spacingLeft=6;fontSize=18;" vertex="1" parent="pRwMzuSWa3xkRZmgdmZQ-101">
          <mxGeometry x="30" width="610" height="30" as="geometry">
            <mxRectangle width="610" height="30" as="alternateBounds" />
          </mxGeometry>
        </mxCell>
        <mxCell id="pRwMzuSWa3xkRZmgdmZQ-104" value="" style="shape=tableRow;horizontal=0;startSize=0;swimlaneHead=0;swimlaneBody=0;fillColor=none;collapsible=0;dropTarget=0;points=[[0,0.5],[1,0.5]];portConstraint=eastwest;strokeColor=inherit;top=0;left=0;right=0;bottom=0;fontSize=18;" vertex="1" parent="pRwMzuSWa3xkRZmgdmZQ-91">
          <mxGeometry y="150" width="640" height="30" as="geometry" />
        </mxCell>
        <mxCell id="pRwMzuSWa3xkRZmgdmZQ-105" value="" style="shape=partialRectangle;overflow=hidden;connectable=0;fillColor=none;strokeColor=inherit;top=0;left=0;bottom=0;right=0;fontSize=18;" vertex="1" parent="pRwMzuSWa3xkRZmgdmZQ-104">
          <mxGeometry width="30" height="30" as="geometry">
            <mxRectangle width="30" height="30" as="alternateBounds" />
          </mxGeometry>
        </mxCell>
        <mxCell id="pRwMzuSWa3xkRZmgdmZQ-106" value="`created_at` timestamp NULL DEFAULT NULL" style="shape=partialRectangle;overflow=hidden;connectable=0;fillColor=none;align=left;strokeColor=inherit;top=0;left=0;bottom=0;right=0;spacingLeft=6;fontSize=18;" vertex="1" parent="pRwMzuSWa3xkRZmgdmZQ-104">
          <mxGeometry x="30" width="610" height="30" as="geometry">
            <mxRectangle width="610" height="30" as="alternateBounds" />
          </mxGeometry>
        </mxCell>
        <mxCell id="pRwMzuSWa3xkRZmgdmZQ-107" value="" style="shape=tableRow;horizontal=0;startSize=0;swimlaneHead=0;swimlaneBody=0;fillColor=none;collapsible=0;dropTarget=0;points=[[0,0.5],[1,0.5]];portConstraint=eastwest;strokeColor=inherit;top=0;left=0;right=0;bottom=0;fontSize=18;" vertex="1" parent="pRwMzuSWa3xkRZmgdmZQ-91">
          <mxGeometry y="180" width="640" height="30" as="geometry" />
        </mxCell>
        <mxCell id="pRwMzuSWa3xkRZmgdmZQ-108" value="" style="shape=partialRectangle;overflow=hidden;connectable=0;fillColor=none;strokeColor=inherit;top=0;left=0;bottom=0;right=0;fontSize=18;" vertex="1" parent="pRwMzuSWa3xkRZmgdmZQ-107">
          <mxGeometry width="30" height="30" as="geometry">
            <mxRectangle width="30" height="30" as="alternateBounds" />
          </mxGeometry>
        </mxCell>
        <mxCell id="pRwMzuSWa3xkRZmgdmZQ-109" value="`updated_at` timestamp NULL DEFAULT NULL" style="shape=partialRectangle;overflow=hidden;connectable=0;fillColor=none;align=left;strokeColor=inherit;top=0;left=0;bottom=0;right=0;spacingLeft=6;fontSize=18;" vertex="1" parent="pRwMzuSWa3xkRZmgdmZQ-107">
          <mxGeometry x="30" width="610" height="30" as="geometry">
            <mxRectangle width="610" height="30" as="alternateBounds" />
          </mxGeometry>
        </mxCell>
        <mxCell id="pRwMzuSWa3xkRZmgdmZQ-116" value="`operator_users`" style="shape=table;startSize=30;container=1;collapsible=1;childLayout=tableLayout;fixedRows=1;rowLines=0;fontStyle=1;align=center;resizeLast=1;fontSize=18;" vertex="1" parent="1">
          <mxGeometry x="830" y="840" width="720" height="580" as="geometry" />
        </mxCell>
        <mxCell id="pRwMzuSWa3xkRZmgdmZQ-117" value="" style="shape=tableRow;horizontal=0;startSize=0;swimlaneHead=0;swimlaneBody=0;fillColor=none;collapsible=0;dropTarget=0;points=[[0,0.5],[1,0.5]];portConstraint=eastwest;strokeColor=inherit;top=0;left=0;right=0;bottom=1;fontSize=18;" vertex="1" parent="pRwMzuSWa3xkRZmgdmZQ-116">
          <mxGeometry y="30" width="720" height="30" as="geometry" />
        </mxCell>
        <mxCell id="pRwMzuSWa3xkRZmgdmZQ-118" value="PK" style="shape=partialRectangle;overflow=hidden;connectable=0;fillColor=none;strokeColor=inherit;top=0;left=0;bottom=0;right=0;fontStyle=1;fontSize=18;" vertex="1" parent="pRwMzuSWa3xkRZmgdmZQ-117">
          <mxGeometry width="30" height="30" as="geometry">
            <mxRectangle width="30" height="30" as="alternateBounds" />
          </mxGeometry>
        </mxCell>
        <mxCell id="pRwMzuSWa3xkRZmgdmZQ-119" value="`id` bigint(20) unsigned NOT NULL AUTO_INCREMENT" style="shape=partialRectangle;overflow=hidden;connectable=0;fillColor=none;align=left;strokeColor=inherit;top=0;left=0;bottom=0;right=0;spacingLeft=6;fontStyle=5;fontSize=18;" vertex="1" parent="pRwMzuSWa3xkRZmgdmZQ-117">
          <mxGeometry x="30" width="690" height="30" as="geometry">
            <mxRectangle width="690" height="30" as="alternateBounds" />
          </mxGeometry>
        </mxCell>
        <mxCell id="pRwMzuSWa3xkRZmgdmZQ-120" value="" style="shape=tableRow;horizontal=0;startSize=0;swimlaneHead=0;swimlaneBody=0;fillColor=none;collapsible=0;dropTarget=0;points=[[0,0.5],[1,0.5]];portConstraint=eastwest;strokeColor=inherit;top=0;left=0;right=0;bottom=0;fontSize=18;" vertex="1" parent="pRwMzuSWa3xkRZmgdmZQ-116">
          <mxGeometry y="60" width="720" height="30" as="geometry" />
        </mxCell>
        <mxCell id="pRwMzuSWa3xkRZmgdmZQ-121" value="" style="shape=partialRectangle;overflow=hidden;connectable=0;fillColor=none;strokeColor=inherit;top=0;left=0;bottom=0;right=0;fontSize=18;" vertex="1" parent="pRwMzuSWa3xkRZmgdmZQ-120">
          <mxGeometry width="30" height="30" as="geometry">
            <mxRectangle width="30" height="30" as="alternateBounds" />
          </mxGeometry>
        </mxCell>
        <mxCell id="pRwMzuSWa3xkRZmgdmZQ-122" value="`company_id` bigint(20) unsigned NOT NULL" style="shape=partialRectangle;overflow=hidden;connectable=0;fillColor=none;align=left;strokeColor=inherit;top=0;left=0;bottom=0;right=0;spacingLeft=6;fontSize=18;" vertex="1" parent="pRwMzuSWa3xkRZmgdmZQ-120">
          <mxGeometry x="30" width="690" height="30" as="geometry">
            <mxRectangle width="690" height="30" as="alternateBounds" />
          </mxGeometry>
        </mxCell>
        <mxCell id="pRwMzuSWa3xkRZmgdmZQ-123" value="" style="shape=tableRow;horizontal=0;startSize=0;swimlaneHead=0;swimlaneBody=0;fillColor=none;collapsible=0;dropTarget=0;points=[[0,0.5],[1,0.5]];portConstraint=eastwest;strokeColor=inherit;top=0;left=0;right=0;bottom=0;fontSize=18;" vertex="1" parent="pRwMzuSWa3xkRZmgdmZQ-116">
          <mxGeometry y="90" width="720" height="30" as="geometry" />
        </mxCell>
        <mxCell id="pRwMzuSWa3xkRZmgdmZQ-124" value="" style="shape=partialRectangle;overflow=hidden;connectable=0;fillColor=none;strokeColor=inherit;top=0;left=0;bottom=0;right=0;fontSize=18;" vertex="1" parent="pRwMzuSWa3xkRZmgdmZQ-123">
          <mxGeometry width="30" height="30" as="geometry">
            <mxRectangle width="30" height="30" as="alternateBounds" />
          </mxGeometry>
        </mxCell>
        <mxCell id="pRwMzuSWa3xkRZmgdmZQ-125" value="`name` varchar(191) NOT NULL" style="shape=partialRectangle;overflow=hidden;connectable=0;fillColor=none;align=left;strokeColor=inherit;top=0;left=0;bottom=0;right=0;spacingLeft=6;fontSize=18;" vertex="1" parent="pRwMzuSWa3xkRZmgdmZQ-123">
          <mxGeometry x="30" width="690" height="30" as="geometry">
            <mxRectangle width="690" height="30" as="alternateBounds" />
          </mxGeometry>
        </mxCell>
        <mxCell id="pRwMzuSWa3xkRZmgdmZQ-126" value="" style="shape=tableRow;horizontal=0;startSize=0;swimlaneHead=0;swimlaneBody=0;fillColor=none;collapsible=0;dropTarget=0;points=[[0,0.5],[1,0.5]];portConstraint=eastwest;strokeColor=inherit;top=0;left=0;right=0;bottom=0;fontSize=18;" vertex="1" parent="pRwMzuSWa3xkRZmgdmZQ-116">
          <mxGeometry y="120" width="720" height="30" as="geometry" />
        </mxCell>
        <mxCell id="pRwMzuSWa3xkRZmgdmZQ-127" value="" style="shape=partialRectangle;overflow=hidden;connectable=0;fillColor=none;strokeColor=inherit;top=0;left=0;bottom=0;right=0;fontSize=18;" vertex="1" parent="pRwMzuSWa3xkRZmgdmZQ-126">
          <mxGeometry width="30" height="30" as="geometry">
            <mxRectangle width="30" height="30" as="alternateBounds" />
          </mxGeometry>
        </mxCell>
        <mxCell id="pRwMzuSWa3xkRZmgdmZQ-128" value="`username` varchar(100) NOT NULL" style="shape=partialRectangle;overflow=hidden;connectable=0;fillColor=none;align=left;strokeColor=inherit;top=0;left=0;bottom=0;right=0;spacingLeft=6;fontSize=18;" vertex="1" parent="pRwMzuSWa3xkRZmgdmZQ-126">
          <mxGeometry x="30" width="690" height="30" as="geometry">
            <mxRectangle width="690" height="30" as="alternateBounds" />
          </mxGeometry>
        </mxCell>
        <mxCell id="pRwMzuSWa3xkRZmgdmZQ-129" value="" style="shape=tableRow;horizontal=0;startSize=0;swimlaneHead=0;swimlaneBody=0;fillColor=none;collapsible=0;dropTarget=0;points=[[0,0.5],[1,0.5]];portConstraint=eastwest;strokeColor=inherit;top=0;left=0;right=0;bottom=0;fontSize=18;" vertex="1" parent="pRwMzuSWa3xkRZmgdmZQ-116">
          <mxGeometry y="150" width="720" height="30" as="geometry" />
        </mxCell>
        <mxCell id="pRwMzuSWa3xkRZmgdmZQ-130" value="" style="shape=partialRectangle;overflow=hidden;connectable=0;fillColor=none;strokeColor=inherit;top=0;left=0;bottom=0;right=0;fontSize=18;" vertex="1" parent="pRwMzuSWa3xkRZmgdmZQ-129">
          <mxGeometry width="30" height="30" as="geometry">
            <mxRectangle width="30" height="30" as="alternateBounds" />
          </mxGeometry>
        </mxCell>
        <mxCell id="pRwMzuSWa3xkRZmgdmZQ-131" value="`email` varchar(191) DEFAULT NULL" style="shape=partialRectangle;overflow=hidden;connectable=0;fillColor=none;align=left;strokeColor=inherit;top=0;left=0;bottom=0;right=0;spacingLeft=6;fontSize=18;" vertex="1" parent="pRwMzuSWa3xkRZmgdmZQ-129">
          <mxGeometry x="30" width="690" height="30" as="geometry">
            <mxRectangle width="690" height="30" as="alternateBounds" />
          </mxGeometry>
        </mxCell>
        <mxCell id="pRwMzuSWa3xkRZmgdmZQ-132" value="" style="shape=tableRow;horizontal=0;startSize=0;swimlaneHead=0;swimlaneBody=0;fillColor=none;collapsible=0;dropTarget=0;points=[[0,0.5],[1,0.5]];portConstraint=eastwest;strokeColor=inherit;top=0;left=0;right=0;bottom=0;fontSize=18;" vertex="1" parent="pRwMzuSWa3xkRZmgdmZQ-116">
          <mxGeometry y="180" width="720" height="30" as="geometry" />
        </mxCell>
        <mxCell id="pRwMzuSWa3xkRZmgdmZQ-133" value="" style="shape=partialRectangle;overflow=hidden;connectable=0;fillColor=none;strokeColor=inherit;top=0;left=0;bottom=0;right=0;fontSize=18;" vertex="1" parent="pRwMzuSWa3xkRZmgdmZQ-132">
          <mxGeometry width="30" height="30" as="geometry">
            <mxRectangle width="30" height="30" as="alternateBounds" />
          </mxGeometry>
        </mxCell>
        <mxCell id="pRwMzuSWa3xkRZmgdmZQ-134" value="`phone` varchar(191) DEFAULT NULL" style="shape=partialRectangle;overflow=hidden;connectable=0;fillColor=none;align=left;strokeColor=inherit;top=0;left=0;bottom=0;right=0;spacingLeft=6;fontSize=18;" vertex="1" parent="pRwMzuSWa3xkRZmgdmZQ-132">
          <mxGeometry x="30" width="690" height="30" as="geometry">
            <mxRectangle width="690" height="30" as="alternateBounds" />
          </mxGeometry>
        </mxCell>
        <mxCell id="pRwMzuSWa3xkRZmgdmZQ-135" value="" style="shape=tableRow;horizontal=0;startSize=0;swimlaneHead=0;swimlaneBody=0;fillColor=none;collapsible=0;dropTarget=0;points=[[0,0.5],[1,0.5]];portConstraint=eastwest;strokeColor=inherit;top=0;left=0;right=0;bottom=0;fontSize=18;" vertex="1" parent="pRwMzuSWa3xkRZmgdmZQ-116">
          <mxGeometry y="210" width="720" height="30" as="geometry" />
        </mxCell>
        <mxCell id="pRwMzuSWa3xkRZmgdmZQ-136" value="" style="shape=partialRectangle;overflow=hidden;connectable=0;fillColor=none;strokeColor=inherit;top=0;left=0;bottom=0;right=0;fontSize=18;" vertex="1" parent="pRwMzuSWa3xkRZmgdmZQ-135">
          <mxGeometry width="30" height="30" as="geometry">
            <mxRectangle width="30" height="30" as="alternateBounds" />
          </mxGeometry>
        </mxCell>
        <mxCell id="pRwMzuSWa3xkRZmgdmZQ-137" value="`password` varchar(191) NOT NULL" style="shape=partialRectangle;overflow=hidden;connectable=0;fillColor=none;align=left;strokeColor=inherit;top=0;left=0;bottom=0;right=0;spacingLeft=6;fontSize=18;" vertex="1" parent="pRwMzuSWa3xkRZmgdmZQ-135">
          <mxGeometry x="30" width="690" height="30" as="geometry">
            <mxRectangle width="690" height="30" as="alternateBounds" />
          </mxGeometry>
        </mxCell>
        <mxCell id="pRwMzuSWa3xkRZmgdmZQ-138" value="" style="shape=tableRow;horizontal=0;startSize=0;swimlaneHead=0;swimlaneBody=0;fillColor=none;collapsible=0;dropTarget=0;points=[[0,0.5],[1,0.5]];portConstraint=eastwest;strokeColor=inherit;top=0;left=0;right=0;bottom=0;fontSize=18;" vertex="1" parent="pRwMzuSWa3xkRZmgdmZQ-116">
          <mxGeometry y="240" width="720" height="30" as="geometry" />
        </mxCell>
        <mxCell id="pRwMzuSWa3xkRZmgdmZQ-139" value="" style="shape=partialRectangle;overflow=hidden;connectable=0;fillColor=none;strokeColor=inherit;top=0;left=0;bottom=0;right=0;fontSize=18;" vertex="1" parent="pRwMzuSWa3xkRZmgdmZQ-138">
          <mxGeometry width="30" height="30" as="geometry">
            <mxRectangle width="30" height="30" as="alternateBounds" />
          </mxGeometry>
        </mxCell>
        <mxCell id="pRwMzuSWa3xkRZmgdmZQ-140" value="`image` varchar(191) DEFAULT NULL" style="shape=partialRectangle;overflow=hidden;connectable=0;fillColor=none;align=left;strokeColor=inherit;top=0;left=0;bottom=0;right=0;spacingLeft=6;fontSize=18;" vertex="1" parent="pRwMzuSWa3xkRZmgdmZQ-138">
          <mxGeometry x="30" width="690" height="30" as="geometry">
            <mxRectangle width="690" height="30" as="alternateBounds" />
          </mxGeometry>
        </mxCell>
        <mxCell id="pRwMzuSWa3xkRZmgdmZQ-141" value="" style="shape=tableRow;horizontal=0;startSize=0;swimlaneHead=0;swimlaneBody=0;fillColor=none;collapsible=0;dropTarget=0;points=[[0,0.5],[1,0.5]];portConstraint=eastwest;strokeColor=inherit;top=0;left=0;right=0;bottom=0;fontSize=18;" vertex="1" parent="pRwMzuSWa3xkRZmgdmZQ-116">
          <mxGeometry y="270" width="720" height="30" as="geometry" />
        </mxCell>
        <mxCell id="pRwMzuSWa3xkRZmgdmZQ-142" value="" style="shape=partialRectangle;overflow=hidden;connectable=0;fillColor=none;strokeColor=inherit;top=0;left=0;bottom=0;right=0;fontSize=18;" vertex="1" parent="pRwMzuSWa3xkRZmgdmZQ-141">
          <mxGeometry width="30" height="30" as="geometry">
            <mxRectangle width="30" height="30" as="alternateBounds" />
          </mxGeometry>
        </mxCell>
        <mxCell id="pRwMzuSWa3xkRZmgdmZQ-143" value="`gender` varchar(191) DEFAULT NULL" style="shape=partialRectangle;overflow=hidden;connectable=0;fillColor=none;align=left;strokeColor=inherit;top=0;left=0;bottom=0;right=0;spacingLeft=6;fontSize=18;" vertex="1" parent="pRwMzuSWa3xkRZmgdmZQ-141">
          <mxGeometry x="30" width="690" height="30" as="geometry">
            <mxRectangle width="690" height="30" as="alternateBounds" />
          </mxGeometry>
        </mxCell>
        <mxCell id="pRwMzuSWa3xkRZmgdmZQ-144" value="" style="shape=tableRow;horizontal=0;startSize=0;swimlaneHead=0;swimlaneBody=0;fillColor=none;collapsible=0;dropTarget=0;points=[[0,0.5],[1,0.5]];portConstraint=eastwest;strokeColor=inherit;top=0;left=0;right=0;bottom=0;fontSize=18;" vertex="1" parent="pRwMzuSWa3xkRZmgdmZQ-116">
          <mxGeometry y="300" width="720" height="30" as="geometry" />
        </mxCell>
        <mxCell id="pRwMzuSWa3xkRZmgdmZQ-145" value="" style="shape=partialRectangle;overflow=hidden;connectable=0;fillColor=none;strokeColor=inherit;top=0;left=0;bottom=0;right=0;fontSize=18;" vertex="1" parent="pRwMzuSWa3xkRZmgdmZQ-144">
          <mxGeometry width="30" height="30" as="geometry">
            <mxRectangle width="30" height="30" as="alternateBounds" />
          </mxGeometry>
        </mxCell>
        <mxCell id="pRwMzuSWa3xkRZmgdmZQ-146" value="`birth_place` varchar(191) DEFAULT NULL" style="shape=partialRectangle;overflow=hidden;connectable=0;fillColor=none;align=left;strokeColor=inherit;top=0;left=0;bottom=0;right=0;spacingLeft=6;fontSize=18;" vertex="1" parent="pRwMzuSWa3xkRZmgdmZQ-144">
          <mxGeometry x="30" width="690" height="30" as="geometry">
            <mxRectangle width="690" height="30" as="alternateBounds" />
          </mxGeometry>
        </mxCell>
        <mxCell id="pRwMzuSWa3xkRZmgdmZQ-147" value="" style="shape=tableRow;horizontal=0;startSize=0;swimlaneHead=0;swimlaneBody=0;fillColor=none;collapsible=0;dropTarget=0;points=[[0,0.5],[1,0.5]];portConstraint=eastwest;strokeColor=inherit;top=0;left=0;right=0;bottom=0;fontSize=18;" vertex="1" parent="pRwMzuSWa3xkRZmgdmZQ-116">
          <mxGeometry y="330" width="720" height="30" as="geometry" />
        </mxCell>
        <mxCell id="pRwMzuSWa3xkRZmgdmZQ-148" value="" style="shape=partialRectangle;overflow=hidden;connectable=0;fillColor=none;strokeColor=inherit;top=0;left=0;bottom=0;right=0;fontSize=18;" vertex="1" parent="pRwMzuSWa3xkRZmgdmZQ-147">
          <mxGeometry width="30" height="30" as="geometry">
            <mxRectangle width="30" height="30" as="alternateBounds" />
          </mxGeometry>
        </mxCell>
        <mxCell id="pRwMzuSWa3xkRZmgdmZQ-149" value="`birth_date` date DEFAULT NULL" style="shape=partialRectangle;overflow=hidden;connectable=0;fillColor=none;align=left;strokeColor=inherit;top=0;left=0;bottom=0;right=0;spacingLeft=6;fontSize=18;" vertex="1" parent="pRwMzuSWa3xkRZmgdmZQ-147">
          <mxGeometry x="30" width="690" height="30" as="geometry">
            <mxRectangle width="690" height="30" as="alternateBounds" />
          </mxGeometry>
        </mxCell>
        <mxCell id="pRwMzuSWa3xkRZmgdmZQ-150" value="" style="shape=tableRow;horizontal=0;startSize=0;swimlaneHead=0;swimlaneBody=0;fillColor=none;collapsible=0;dropTarget=0;points=[[0,0.5],[1,0.5]];portConstraint=eastwest;strokeColor=inherit;top=0;left=0;right=0;bottom=0;fontSize=18;" vertex="1" parent="pRwMzuSWa3xkRZmgdmZQ-116">
          <mxGeometry y="360" width="720" height="30" as="geometry" />
        </mxCell>
        <mxCell id="pRwMzuSWa3xkRZmgdmZQ-151" value="" style="shape=partialRectangle;overflow=hidden;connectable=0;fillColor=none;strokeColor=inherit;top=0;left=0;bottom=0;right=0;fontSize=18;" vertex="1" parent="pRwMzuSWa3xkRZmgdmZQ-150">
          <mxGeometry width="30" height="30" as="geometry">
            <mxRectangle width="30" height="30" as="alternateBounds" />
          </mxGeometry>
        </mxCell>
        <mxCell id="pRwMzuSWa3xkRZmgdmZQ-152" value="`google_id` bigint(20) DEFAULT NULL" style="shape=partialRectangle;overflow=hidden;connectable=0;fillColor=none;align=left;strokeColor=inherit;top=0;left=0;bottom=0;right=0;spacingLeft=6;fontSize=18;" vertex="1" parent="pRwMzuSWa3xkRZmgdmZQ-150">
          <mxGeometry x="30" width="690" height="30" as="geometry">
            <mxRectangle width="690" height="30" as="alternateBounds" />
          </mxGeometry>
        </mxCell>
        <mxCell id="pRwMzuSWa3xkRZmgdmZQ-153" value="" style="shape=tableRow;horizontal=0;startSize=0;swimlaneHead=0;swimlaneBody=0;fillColor=none;collapsible=0;dropTarget=0;points=[[0,0.5],[1,0.5]];portConstraint=eastwest;strokeColor=inherit;top=0;left=0;right=0;bottom=0;fontSize=18;" vertex="1" parent="pRwMzuSWa3xkRZmgdmZQ-116">
          <mxGeometry y="390" width="720" height="30" as="geometry" />
        </mxCell>
        <mxCell id="pRwMzuSWa3xkRZmgdmZQ-154" value="" style="shape=partialRectangle;overflow=hidden;connectable=0;fillColor=none;strokeColor=inherit;top=0;left=0;bottom=0;right=0;fontSize=18;" vertex="1" parent="pRwMzuSWa3xkRZmgdmZQ-153">
          <mxGeometry width="30" height="30" as="geometry">
            <mxRectangle width="30" height="30" as="alternateBounds" />
          </mxGeometry>
        </mxCell>
        <mxCell id="pRwMzuSWa3xkRZmgdmZQ-155" value="`google_token` varchar(191) DEFAULT NULL" style="shape=partialRectangle;overflow=hidden;connectable=0;fillColor=none;align=left;strokeColor=inherit;top=0;left=0;bottom=0;right=0;spacingLeft=6;fontSize=18;" vertex="1" parent="pRwMzuSWa3xkRZmgdmZQ-153">
          <mxGeometry x="30" width="690" height="30" as="geometry">
            <mxRectangle width="690" height="30" as="alternateBounds" />
          </mxGeometry>
        </mxCell>
        <mxCell id="pRwMzuSWa3xkRZmgdmZQ-156" value="" style="shape=tableRow;horizontal=0;startSize=0;swimlaneHead=0;swimlaneBody=0;fillColor=none;collapsible=0;dropTarget=0;points=[[0,0.5],[1,0.5]];portConstraint=eastwest;strokeColor=inherit;top=0;left=0;right=0;bottom=0;fontSize=18;" vertex="1" parent="pRwMzuSWa3xkRZmgdmZQ-116">
          <mxGeometry y="420" width="720" height="30" as="geometry" />
        </mxCell>
        <mxCell id="pRwMzuSWa3xkRZmgdmZQ-157" value="" style="shape=partialRectangle;overflow=hidden;connectable=0;fillColor=none;strokeColor=inherit;top=0;left=0;bottom=0;right=0;fontSize=18;" vertex="1" parent="pRwMzuSWa3xkRZmgdmZQ-156">
          <mxGeometry width="30" height="30" as="geometry">
            <mxRectangle width="30" height="30" as="alternateBounds" />
          </mxGeometry>
        </mxCell>
        <mxCell id="pRwMzuSWa3xkRZmgdmZQ-158" value="`google_expires_in` timestamp NULL DEFAULT NULL" style="shape=partialRectangle;overflow=hidden;connectable=0;fillColor=none;align=left;strokeColor=inherit;top=0;left=0;bottom=0;right=0;spacingLeft=6;fontSize=18;" vertex="1" parent="pRwMzuSWa3xkRZmgdmZQ-156">
          <mxGeometry x="30" width="690" height="30" as="geometry">
            <mxRectangle width="690" height="30" as="alternateBounds" />
          </mxGeometry>
        </mxCell>
        <mxCell id="pRwMzuSWa3xkRZmgdmZQ-159" value="" style="shape=tableRow;horizontal=0;startSize=0;swimlaneHead=0;swimlaneBody=0;fillColor=none;collapsible=0;dropTarget=0;points=[[0,0.5],[1,0.5]];portConstraint=eastwest;strokeColor=inherit;top=0;left=0;right=0;bottom=0;fontSize=18;" vertex="1" parent="pRwMzuSWa3xkRZmgdmZQ-116">
          <mxGeometry y="450" width="720" height="30" as="geometry" />
        </mxCell>
        <mxCell id="pRwMzuSWa3xkRZmgdmZQ-160" value="" style="shape=partialRectangle;overflow=hidden;connectable=0;fillColor=none;strokeColor=inherit;top=0;left=0;bottom=0;right=0;fontSize=18;" vertex="1" parent="pRwMzuSWa3xkRZmgdmZQ-159">
          <mxGeometry width="30" height="30" as="geometry">
            <mxRectangle width="30" height="30" as="alternateBounds" />
          </mxGeometry>
        </mxCell>
        <mxCell id="pRwMzuSWa3xkRZmgdmZQ-161" value="`remember_token` varchar(100) DEFAULT NULL" style="shape=partialRectangle;overflow=hidden;connectable=0;fillColor=none;align=left;strokeColor=inherit;top=0;left=0;bottom=0;right=0;spacingLeft=6;fontSize=18;" vertex="1" parent="pRwMzuSWa3xkRZmgdmZQ-159">
          <mxGeometry x="30" width="690" height="30" as="geometry">
            <mxRectangle width="690" height="30" as="alternateBounds" />
          </mxGeometry>
        </mxCell>
        <mxCell id="pRwMzuSWa3xkRZmgdmZQ-162" value="" style="shape=tableRow;horizontal=0;startSize=0;swimlaneHead=0;swimlaneBody=0;fillColor=none;collapsible=0;dropTarget=0;points=[[0,0.5],[1,0.5]];portConstraint=eastwest;strokeColor=inherit;top=0;left=0;right=0;bottom=0;fontSize=18;" vertex="1" parent="pRwMzuSWa3xkRZmgdmZQ-116">
          <mxGeometry y="480" width="720" height="30" as="geometry" />
        </mxCell>
        <mxCell id="pRwMzuSWa3xkRZmgdmZQ-163" value="" style="shape=partialRectangle;overflow=hidden;connectable=0;fillColor=none;strokeColor=inherit;top=0;left=0;bottom=0;right=0;fontSize=18;" vertex="1" parent="pRwMzuSWa3xkRZmgdmZQ-162">
          <mxGeometry width="30" height="30" as="geometry">
            <mxRectangle width="30" height="30" as="alternateBounds" />
          </mxGeometry>
        </mxCell>
        <mxCell id="pRwMzuSWa3xkRZmgdmZQ-164" value="`deleted_at` timestamp NULL DEFAULT NULL" style="shape=partialRectangle;overflow=hidden;connectable=0;fillColor=none;align=left;strokeColor=inherit;top=0;left=0;bottom=0;right=0;spacingLeft=6;fontSize=18;" vertex="1" parent="pRwMzuSWa3xkRZmgdmZQ-162">
          <mxGeometry x="30" width="690" height="30" as="geometry">
            <mxRectangle width="690" height="30" as="alternateBounds" />
          </mxGeometry>
        </mxCell>
        <mxCell id="pRwMzuSWa3xkRZmgdmZQ-165" value="" style="shape=tableRow;horizontal=0;startSize=0;swimlaneHead=0;swimlaneBody=0;fillColor=none;collapsible=0;dropTarget=0;points=[[0,0.5],[1,0.5]];portConstraint=eastwest;strokeColor=inherit;top=0;left=0;right=0;bottom=0;fontSize=18;" vertex="1" parent="pRwMzuSWa3xkRZmgdmZQ-116">
          <mxGeometry y="510" width="720" height="30" as="geometry" />
        </mxCell>
        <mxCell id="pRwMzuSWa3xkRZmgdmZQ-166" value="" style="shape=partialRectangle;overflow=hidden;connectable=0;fillColor=none;strokeColor=inherit;top=0;left=0;bottom=0;right=0;fontSize=18;" vertex="1" parent="pRwMzuSWa3xkRZmgdmZQ-165">
          <mxGeometry width="30" height="30" as="geometry">
            <mxRectangle width="30" height="30" as="alternateBounds" />
          </mxGeometry>
        </mxCell>
        <mxCell id="pRwMzuSWa3xkRZmgdmZQ-167" value="`created_at` timestamp NULL DEFAULT NULL" style="shape=partialRectangle;overflow=hidden;connectable=0;fillColor=none;align=left;strokeColor=inherit;top=0;left=0;bottom=0;right=0;spacingLeft=6;fontSize=18;" vertex="1" parent="pRwMzuSWa3xkRZmgdmZQ-165">
          <mxGeometry x="30" width="690" height="30" as="geometry">
            <mxRectangle width="690" height="30" as="alternateBounds" />
          </mxGeometry>
        </mxCell>
        <mxCell id="pRwMzuSWa3xkRZmgdmZQ-168" value="" style="shape=tableRow;horizontal=0;startSize=0;swimlaneHead=0;swimlaneBody=0;fillColor=none;collapsible=0;dropTarget=0;points=[[0,0.5],[1,0.5]];portConstraint=eastwest;strokeColor=inherit;top=0;left=0;right=0;bottom=0;fontSize=18;" vertex="1" parent="pRwMzuSWa3xkRZmgdmZQ-116">
          <mxGeometry y="540" width="720" height="30" as="geometry" />
        </mxCell>
        <mxCell id="pRwMzuSWa3xkRZmgdmZQ-169" value="" style="shape=partialRectangle;overflow=hidden;connectable=0;fillColor=none;strokeColor=inherit;top=0;left=0;bottom=0;right=0;fontSize=18;" vertex="1" parent="pRwMzuSWa3xkRZmgdmZQ-168">
          <mxGeometry width="30" height="30" as="geometry">
            <mxRectangle width="30" height="30" as="alternateBounds" />
          </mxGeometry>
        </mxCell>
        <mxCell id="pRwMzuSWa3xkRZmgdmZQ-170" value="`updated_at` timestamp NULL DEFAULT NULL" style="shape=partialRectangle;overflow=hidden;connectable=0;fillColor=none;align=left;strokeColor=inherit;top=0;left=0;bottom=0;right=0;spacingLeft=6;fontSize=18;" vertex="1" parent="pRwMzuSWa3xkRZmgdmZQ-168">
          <mxGeometry x="30" width="690" height="30" as="geometry">
            <mxRectangle width="690" height="30" as="alternateBounds" />
          </mxGeometry>
        </mxCell>
        <mxCell id="pRwMzuSWa3xkRZmgdmZQ-183" value="" style="fontSize=18;html=1;endArrow=ERoneToMany;rounded=0;exitX=0;exitY=0.5;exitDx=0;exitDy=0;entryX=1;entryY=0.5;entryDx=0;entryDy=0;" edge="1" parent="1" source="pRwMzuSWa3xkRZmgdmZQ-11" target="pRwMzuSWa3xkRZmgdmZQ-39">
          <mxGeometry width="100" height="100" relative="1" as="geometry">
            <mxPoint x="-350" y="890" as="sourcePoint" />
            <mxPoint x="-850" y="350" as="targetPoint" />
          </mxGeometry>
        </mxCell>
        <mxCell id="pRwMzuSWa3xkRZmgdmZQ-184" value="&lt;font style=&quot;font-size: 21px;&quot;&gt;1 to Many&lt;/font&gt;" style="edgeLabel;html=1;align=center;verticalAlign=middle;resizable=0;points=[];fontSize=21;" vertex="1" connectable="0" parent="pRwMzuSWa3xkRZmgdmZQ-183">
          <mxGeometry x="-0.1884" y="6" relative="1" as="geometry">
            <mxPoint as="offset" />
          </mxGeometry>
        </mxCell>
        <mxCell id="pRwMzuSWa3xkRZmgdmZQ-185" value="" style="fontSize=18;html=1;endArrow=ERoneToMany;rounded=0;exitX=0.315;exitY=0.001;exitDx=0;exitDy=0;entryX=0.5;entryY=1;entryDx=0;entryDy=0;exitPerimeter=0;" edge="1" parent="1" source="pRwMzuSWa3xkRZmgdmZQ-1" target="pRwMzuSWa3xkRZmgdmZQ-60">
          <mxGeometry width="100" height="100" relative="1" as="geometry">
            <mxPoint x="160" y="1240" as="sourcePoint" />
            <mxPoint x="-414.48" y="1014.3199999999997" as="targetPoint" />
          </mxGeometry>
        </mxCell>
        <mxCell id="pRwMzuSWa3xkRZmgdmZQ-186" value="&lt;font style=&quot;font-size: 21px;&quot;&gt;1 to Many&lt;/font&gt;" style="edgeLabel;html=1;align=center;verticalAlign=middle;resizable=0;points=[];fontSize=21;" vertex="1" connectable="0" parent="pRwMzuSWa3xkRZmgdmZQ-185">
          <mxGeometry x="-0.1884" y="6" relative="1" as="geometry">
            <mxPoint as="offset" />
          </mxGeometry>
        </mxCell>
        <mxCell id="pRwMzuSWa3xkRZmgdmZQ-187" value="" style="fontSize=18;html=1;endArrow=ERmandOne;rounded=0;entryX=0.464;entryY=1.049;entryDx=0;entryDy=0;entryPerimeter=0;endFill=0;startArrow=ERmandOne;startFill=0;exitX=0.378;exitY=-0.008;exitDx=0;exitDy=0;exitPerimeter=0;" edge="1" parent="1" source="pRwMzuSWa3xkRZmgdmZQ-1" target="pRwMzuSWa3xkRZmgdmZQ-107">
          <mxGeometry width="100" height="100" relative="1" as="geometry">
            <mxPoint x="220" y="1220" as="sourcePoint" />
            <mxPoint x="447.44000000000005" y="962.7599999999998" as="targetPoint" />
          </mxGeometry>
        </mxCell>
        <mxCell id="pRwMzuSWa3xkRZmgdmZQ-188" value="&lt;font style=&quot;font-size: 21px;&quot;&gt;1 to 1&lt;/font&gt;" style="edgeLabel;html=1;align=center;verticalAlign=middle;resizable=0;points=[];fontSize=21;" vertex="1" connectable="0" parent="pRwMzuSWa3xkRZmgdmZQ-187">
          <mxGeometry x="-0.1884" y="6" relative="1" as="geometry">
            <mxPoint as="offset" />
          </mxGeometry>
        </mxCell>
        <mxCell id="pRwMzuSWa3xkRZmgdmZQ-189" style="rounded=0;orthogonalLoop=1;jettySize=auto;html=1;exitX=0.5;exitY=0;exitDx=0;exitDy=0;endArrow=ERoneToMany;endFill=0;startArrow=ERmandOne;startFill=0;fontSize=18;entryX=0;entryY=0.5;entryDx=0;entryDy=0;" edge="1" parent="1" source="pRwMzuSWa3xkRZmgdmZQ-1" target="pRwMzuSWa3xkRZmgdmZQ-144">
          <mxGeometry relative="1" as="geometry">
            <mxPoint x="240" y="741" as="targetPoint" />
          </mxGeometry>
        </mxCell>
        <mxCell id="pRwMzuSWa3xkRZmgdmZQ-190" value="1 to Many" style="edgeLabel;html=1;align=center;verticalAlign=middle;resizable=0;points=[];fontSize=21;" vertex="1" connectable="0" parent="pRwMzuSWa3xkRZmgdmZQ-189">
          <mxGeometry x="0.044" y="1" relative="1" as="geometry">
            <mxPoint as="offset" />
          </mxGeometry>
        </mxCell>
      </root>
    </mxGraphModel>
  </diagram>
</mxfile>
